<svg version="1.2" xmlns="http://www.w3.org/2000/svg" viewBox="0 0 410 437" width="410" height="437"><defs><clipPath clipPathUnits="userSpaceOnUse" id="cp1"><path d="m208.01 219.69l-6.64 124.69-84.2-4.36 0.71-13.21 5.94-111.48 53.01 2.74z"/></clipPath><clipPath clipPathUnits="userSpaceOnUse" id="cp2"><path d="m152.07 309.09l-81.23 22.25-33.93-120.31 33.63-9.22 47.6-13.02 30.78 109.15z"/></clipPath><clipPath clipPathUnits="userSpaceOnUse" id="cp3"><path d="m368.53 248.48l-12.34 44.9c-0.6 1.89-1.77 3.55-3.36 4.75-1.6 1.21-3.53 1.9-5.54 1.98h-70.43c-0.85 0.06-1.7-0.08-2.48-0.43-0.77-0.34-1.45-0.87-1.97-1.53-0.52-0.67-0.86-1.45-0.99-2.28-0.13-0.83-0.05-1.68 0.24-2.47l12.35-44.9c0.6-1.89 1.78-3.54 3.37-4.74 1.59-1.2 3.52-1.89 5.53-1.97h70.42q1.01-0.07 1.98 0.25 0.97 0.32 1.74 0.97 0.77 0.66 1.23 1.56 0.45 0.9 0.52 1.9 0.07 1.03-0.27 2.01z"/></clipPath><clipPath clipPathUnits="userSpaceOnUse" id="cp4"><path d="m333.23 335.88v8.19h-90.69v-8.19c0-1.6 0.65-3.13 1.79-4.26 1.15-1.13 2.7-1.76 4.33-1.76h78.44q1.22 0 2.35 0.45 1.12 0.46 1.98 1.31 0.86 0.84 1.33 1.95 0.46 1.11 0.47 2.31z"/></clipPath><clipPath clipPathUnits="userSpaceOnUse" id="cp5"><path d="m239.6 341.84c-4.35 4.37 16.72 72.92 16.72 72.92-2.3 1.98-5.69 2.9-8.89 3.31q-4.44 0.55-8.89 0.13c0 0-30.19-72.16-21.88-90.07 8.31-17.91 59.87-26.04 59.87-26.04l2.2-5.36 26.67-3.7 4.41 32.19c0 0-4.38 0.42-10.96 1.25-17.66 2.21-51.26 7.42-59.25 15.37z"/></clipPath><clipPath clipPathUnits="userSpaceOnUse" id="cp6"><path d="m224.68 276.96c-4.43-0.75 27.08-27.97 27.08-27.97l15.2 10.07c0 0-25.86 17.95-29.92 18.44-4.07 0.48-12.36-0.54-12.36-0.54z"/></clipPath><clipPath clipPathUnits="userSpaceOnUse" id="cp7"><path d="m252.06 407.52l8.4 21.77c0 0 1.4 5.6-23.94 3.83l-13.95-1.17z"/></clipPath><clipPath clipPathUnits="userSpaceOnUse" id="cp8"><path d="m279.99 250.81c-0.85-2.37-1.19-4.88-1.01-7.39q0.06-1.27 0.27-2.53l-1.7-2.67-2.19-3.42 2.53-9.94c0 0 16.14 3.06 17.35 7.49 1.21 4.43-15.25 18.46-15.25 18.46z"/></clipPath><clipPath clipPathUnits="userSpaceOnUse" id="cp9"><path d="m337.35 369.67c-8.71 5.6-16.01 13.08-21.37 21.86-8.88 14.61-15.92 35.16-4.99 37.76l10.4-0.38 20-6.77-2.09-3.98c0 0-17.52 9.15-20.52 9.15-2.99 0-6.89 0.73-8.54-0.45-1.64-1.18 5.76-27.75 21.6-36.6 15.85-8.86 5.51-20.59 5.51-20.59z"/></clipPath><clipPath clipPathUnits="userSpaceOnUse" id="cp10"><path d="m338.99 429.29c-13.92 0-11.28-61.54-9.68-64.59 1.61-3.05 42.01-4.57 46-3.28 3.98 1.29 19.95 62.61 11.14 67.51z"/></clipPath><clipPath clipPathUnits="userSpaceOnUse" id="cp11"><path d="m366.04 376.21l5.93 4.77q0.12 0.1 0.2 0.24 0.07 0.14 0.08 0.3 0.01 0.16-0.04 0.31-0.05 0.15-0.15 0.27l-4.62 4.91q-0.23 0.22-0.55 0.23-0.33-0.01-0.56-0.23l-5.9-5.42q-0.22-0.23-0.22-0.54 0-0.32 0.22-0.55l4.57-4.18q0.2-0.22 0.5-0.25 0.3-0.03 0.54 0.14z"/></clipPath><clipPath clipPathUnits="userSpaceOnUse" id="cp12"><path d="m346.49 401.26c0 0 26.8 2.18 39.96-1.18 1.76 1.36 3.07 3.21 3.76 5.31 1.2 3.54 3.7 15.65-3.76 18.75-7.46 3.1-34.29 2.5-37.87-1-3.58-3.5-2.09-21.88-2.09-21.88z"/></clipPath><clipPath clipPathUnits="userSpaceOnUse" id="cp13"><path d="m335.25 399.48c0 0 0.9 17.56 2.69 21.54-1.33 0.69-2.81 1.05-4.31 1.05-1.51 0-2.99-0.36-4.32-1.05-4.54-2.36-3.79-17.48-2.89-17.45 0.89 0.04 8.83-4.09 8.83-4.09z"/></clipPath></defs><style>.a{fill:none;stroke:#263238;stroke-linecap:round;stroke-linejoin:round}.b{fill:#fff}.c{opacity:.14}.d{fill:none;stroke:#263238;stroke-linecap:round;stroke-linejoin:round;stroke-width:2}.e{fill:#263238}.f{fill:none;stroke:#263238;stroke-linecap:round;stroke-linejoin:round;stroke-width:1}.g{fill:#fff;stroke:#263238;stroke-linecap:round;stroke-linejoin:round}.h{fill:#4461f2}.i{fill:#757575;stroke:#263238;stroke-linecap:round;stroke-linejoin:round}.j{fill:#999;stroke:#263238;stroke-linecap:round;stroke-linejoin:round}.k{fill:#122d9c}.l{opacity:.14;fill:#4461f2}.m{opacity:.3}.n{fill:#122d9c;stroke:#263238;stroke-linecap:round;stroke-linejoin:round}.o{opacity:.4;fill:#fff;stroke:#263238;stroke-linecap:round;stroke-linejoin:round}.p{fill:#4461f2;stroke:#263238;stroke-linecap:round;stroke-linejoin:round}.q{fill:none;stroke:#fff;stroke-linecap:round;stroke-linejoin:round}.r{fill:#263238;stroke:#263238;stroke-linecap:round;stroke-linejoin:round}.s{opacity:.35}.t{opacity:.28}</style><path fill-rule="evenodd" class="a" d="m184.6 25.6c1.4 5.3 0.7-4.5 3.4-16.5 2.7-12 7.2-7.1 7.2-7.1"/><path fill-rule="evenodd" class="a" d="m183.8 13.3l8.4-3.4"/><path fill-rule="evenodd" class="a" d="m199.1 5.9c0 0-5.1 10.2 2.5 14.5"/><path fill-rule="evenodd" class="a" d="m206.2 3c0 0 8.2 4.5 3.1 14.3"/><path fill-rule="evenodd" class="a" d="m200.5 9.3l5.9 4.3"/><path fill-rule="evenodd" class="a" d="m205.2 7.5l-4.7 7.2"/><path fill-rule="evenodd" class="a" d="m24.8 265.7c0 0-14-0.2-14.1 11.8"/><path fill-rule="evenodd" class="a" d="m23.6 273.3c-0.3-1.8-6.4-4-7.4 0.6-1.1 4.6 6.5 1.8 8.9-0.3 0 0-4.4 4.2-3.1 5.3"/><path fill-rule="evenodd" class="a" d="m24.5 280.2c0 0-1.9 2.3-3.9 1.2"/><path fill-rule="evenodd" class="a" d="m36.8 272.3l-10.6 10.5c0 0 5.3-5.3 8.4-3.6 3.9 2.1-1.1 7.8-5.2 3.7"/><path fill-rule="evenodd" class="a" d="m42.1 275.1c0 0 2.8 12.6-11.6 13.1"/><path fill-rule="evenodd" class="a" d="m230.2 60.7l5.1 0.9 0.1 11.3 11.1-20 17.6 2.9"/><path fill-rule="evenodd" class="a" d="m248.5 61.7l7.7 13.4"/><path fill-rule="evenodd" class="a" d="m258.2 63.3l-13.9 9.9"/><path fill-rule="evenodd" class="a" d="m160.8 81c-1.3-1.6-8.8-0.5-7.3 4.8 1.5 5.2 7.7-1.8 8.9-5.3 0 0-2.1 6.7 0 7.1"/><path fill-rule="evenodd" class="a" d="m166.5 75.6l-1.6 5.9c0 0 0.8-3 2.3-3 1.8 0 1.1 3-1.2 2.4"/><path fill-rule="evenodd" class="a" d="m307.8 147.9l-3.5 12.6 7.7 8.3"/><path fill-rule="evenodd" class="a" d="m312.2 153l8.8 7.3"/><path fill-rule="evenodd" class="a" d="m318.3 151.2l-3.8 9.3"/><path fill-rule="evenodd" class="a" d="m324.5 159.3c0 0 0.1 2.6-1.1 2.9"/><path fill-rule="evenodd" class="a" d="m325.6 150.1l5.4 3.9"/><path fill-rule="evenodd" class="a" d="m332.9 146.9l-5.2 18.7"/><path fill-rule="evenodd" class="a" d="m333.2 140.4l8.5 9.5-3.6 10.5"/><path class="a" d="m97.7 386.6l12.4-36.3 15 16.5z"/><path fill-rule="evenodd" class="a" d="m121.4 369.4l-3.2-3.5 3.4-2.9"/><path class="a" d="m24.5 182.7c6.5-2.7 9.5-9.9 6.9-16.2-2.7-6.4-10.1-9.4-16.5-6.8-6.4 2.7-9.5 9.9-6.8 16.3 2.6 6.3 10 9.3 16.4 6.7z"/><path class="a" d="m33.7 174.1c7.7 0 14-6.2 14-13.8 0-7.6-6.3-13.7-14-13.7-7.7 0-14 6.1-14 13.7 0 7.6 6.3 13.8 14 13.8z"/><path fill-rule="evenodd" class="a" d="m22.2 159l-1.7 5.9"/><path fill-rule="evenodd" class="a" d="m24.6 159.8l-2.4 8.4"/><path fill-rule="evenodd" class="a" d="m27.1 161.2l-2.5 9.5"/><path fill-rule="evenodd" class="a" d="m30 164l-1.9 9"/><path fill-rule="evenodd" class="a" d="m31.5 166.9l-1.5 6.7"/><path fill-rule="evenodd" class="a" d="m7.7 155.3c-1.1-0.3-4.1 2.5-1.8 4.4 2.3 1.9 2.9-3.2 2.4-5.1 0 0 1.1 3.6 2.2 3.2"/><path fill-rule="evenodd" class="a" d="m23.9 139.4l4.1 7.2c0 0-2.1-3.6-0.6-5 1.7-1.6 4 1.9 1.1 3.4"/><path fill-rule="evenodd" class="a" d="m97.6 138.5l5.7 5.3"/><path fill-rule="evenodd" class="a" d="m103.3 137.1l-4.7 7"/><path fill-rule="evenodd" class="a" d="m108.9 139.1l5.7-2.1"/><path fill-rule="evenodd" class="a" d="m117.4 131.2l3.4 3"/><path fill-rule="evenodd" class="a" d="m123.5 127.5l-4.4 14.9"/><path fill-rule="evenodd" class="a" d="m372.5 124.6l-0.2-11.4h8.7c0 0-4.8 2.6-2.6 8.7 2.2 6.1 5.8 2.7 5.8 2.7"/><path class="a" d="m357.8 318.2l9.9-6.8 13.1 0.9 0.8 16.4-9.6 6.8-11.9-0.8z"/><path fill-rule="evenodd" class="a" d="m360.1 334.7l9.6-6.8 11.9 0.8"/><path fill-rule="evenodd" class="a" d="m369.7 327.9l-2-16.5"/><path fill-rule="evenodd" class="a" d="m357.8 318.2l13.1 1.5 9.9-7.4"/><path fill-rule="evenodd" class="a" d="m370.9 319.7l1.1 15.8"/><path class="a" d="m359.6 195.2l-0.4 21.8 19.4-8.7z"/><path fill-rule="evenodd" class="a" d="m359.6 195.2l9.3 17.3"/><path fill-rule="evenodd" class="a" d="m367.4 209.7l2.2-1 1.5 2.9"/><path fill-rule="evenodd" class="a" d="m190.3 193.1l8.1 8.5"/><path fill-rule="evenodd" class="a" d="m198.4 191.9l-6.7 9.1"/><path fill-rule="evenodd" class="a" d="m201.7 187.5c0.4-0.2 0.8-0.2 1.2 0 0.4 0.1 0.8 0.4 1 0.8q0 0.2 0.1 0.4c0.4 1.9-2.8 4.4-2.8 4.4h4.5"/><path fill-rule="evenodd" class="a" d="m65.4 66.1c0.4-4.8 2-9.5 4.6-13.5 2.7-4.1 6.4-7.4 10.7-9.6"/><path fill-rule="evenodd" class="a" d="m87.7 96.4c-7.4-1.8-13.8-6.2-17.8-12.5"/><path fill-rule="evenodd" class="a" d="m123.6 70.7c-0.6 7.6-4.3 14.6-10.2 19.6-5.9 4.9-13.5 7.4-21.2 6.8"/><path fill-rule="evenodd" class="a" d="m96.8 39.7c6.7 0.5 12.9 3.2 17.8 7.7 4.8 4.6 7.9 10.6 8.8 17.1"/><path fill-rule="evenodd" class="a" d="m107.1 90.5c-4.1 2.3-8.7 3.4-13.4 3.3-4.6-0.2-9.2-1.5-13.1-4-4-2.5-7.1-6-9.2-10.1-2.1-4.2-3-8.8-2.6-13.4"/><path fill-rule="evenodd" class="a" d="m70.4 59.2c1.4-3.4 3.5-6.6 6.2-9.2 2.8-2.5 6-4.5 9.6-5.7 3.6-1.2 7.4-1.6 11.1-1.2 3.8 0.4 7.4 1.6 10.6 3.6 3.3 1.9 6 4.5 8.1 7.6 2.1 3.1 3.5 6.7 4 10.3 0.6 3.7 0.3 7.5-0.8 11.1-1.1 3.5-3 6.8-5.5 9.6"/><path fill-rule="evenodd" class="a" d="m92 50.1l2.5 18.3 14.3-4.4"/><path fill-rule="evenodd" class="a" d="m316.8 103.9c-4.1 0-8.1-1.1-11.5-3.4-3.4-2.3-6-5.5-7.5-9.2-1.5-3.8-1.8-7.9-0.9-11.9 1-3.9 3.1-7.5 6.1-10.2"/><path fill-rule="evenodd" class="a" d="m335.8 90.4c-1 2.9-2.6 5.5-4.8 7.6-2.1 2.2-4.8 3.8-7.6 4.8"/><path fill-rule="evenodd" class="a" d="m309.9 65.2c5.1-1.8 10.7-1.5 15.5 0.8 4.8 2.3 8.5 6.4 10.3 11.4"/><path fill-rule="evenodd" class="a" d="m326.6 69.4c2.1 1.4 3.9 3.2 5.2 5.3 1.3 2.1 2.2 4.5 2.5 7 0.4 2.4 0.2 4.9-0.6 7.3-0.7 2.4-1.9 4.6-3.6 6.5-1.6 1.9-3.7 3.4-5.9 4.4-2.3 1.1-4.8 1.6-7.3 1.7-2.6 0-5.1-0.5-7.4-1.5-2.3-1-4.4-2.5-6.1-4.3"/><path fill-rule="evenodd" class="a" d="m299.8 89.8c-1.1-3-1.3-6.2-0.6-9.4 0.6-3.1 2.1-6 4.3-8.3 2.2-2.4 5-4.1 8.1-5 3.1-0.9 6.4-1 9.5-0.1"/><path fill-rule="evenodd" class="a" d="m309.8 73.1l6.8 10.9-6.2 7.9"/><path fill-rule="evenodd" class="a" d="m173.7 381c0-2.6 0.7-5.1 1.9-7.5 1.2-2.3 3-4.2 5.2-5.7"/><path fill-rule="evenodd" class="a" d="m201.7 392c-1.9 2-4.4 3.5-7 4.3-2.7 0.8-5.5 0.9-8.3 0.3-2.7-0.6-5.2-1.8-7.3-3.7-2.1-1.8-3.6-4.1-4.5-6.7"/><path fill-rule="evenodd" class="a" d="m189.9 365c4.3 0 8.5 1.7 11.5 4.7 3 3 4.8 7.1 4.8 11.3"/><path fill-rule="evenodd" class="a" d="m189.9 395.1c-3.8 0-7.4-1.5-10.1-4.1-2.7-2.6-4.2-6.2-4.2-10"/><path fill-rule="evenodd" class="a" d="m178.8 372.2c1.3-1.6 3-2.9 4.9-3.9 1.9-0.9 4-1.3 6.1-1.4 2.1 0 4.2 0.5 6.1 1.3 1.9 0.9 3.6 2.2 4.9 3.7 1.4 1.6 2.4 3.5 2.9 5.5 0.6 2 0.7 4.1 0.3 6.2-0.4 2-1.2 3.9-2.4 5.6-1.2 1.7-2.8 3.1-4.7 4.1"/><path fill-rule="evenodd" class="a" d="m187.7 390.6l2.2-9.6-3.1-7.8"/><path fill-rule="evenodd" class="a" d="m1 429.2h408"/><path class="b" d="m208 219.7l-6.6 124.7-84.2-4.4 0.7-13.2 5.9-111.5 53 2.8z"/><g clip-path="url(#cp1)"><path class="c" d="m181.7 292.7l-18.9 1.6 5.5 23.5-50.4 9 5.9-111.5 53 2.8z"/></g><path class="a" d="m208 219.7l-6.6 124.7-84.2-4.4 0.7-13.2 5.9-111.5 53 2.8z"/><path fill-rule="evenodd" class="d" d="m129.8 223.9l21.9 1.1"/><path fill-rule="evenodd" class="d" d="m129.5 228l14.9 0.8"/><path fill-rule="evenodd" class="d" d="m134.4 238.1l63 3.2"/><path fill-rule="evenodd" class="d" d="m134.1 242.2l63.1 3.3"/><path fill-rule="evenodd" class="d" d="m133.9 247l53.7 2.8"/><path class="a" d="m133.9 251.5l-0.3 5 5.2 0.3 0.2-5.1z"/><path class="a" d="m143.2 251.9l-0.3 5.1 5.2 0.3 0.2-5.1z"/><path class="a" d="m152.5 252.4l-0.3 5.1 5.1 0.2 0.3-5z"/><path class="a" d="m161.8 252.9l-0.3 5.1 5.1 0.2 0.3-5z"/><path class="e" d="m131 237.9q0 0.2-0.1 0.5-0.1 0.2-0.3 0.4-0.2 0.1-0.4 0.2-0.3 0.1-0.5 0.1c-0.4 0-0.7-0.2-0.9-0.4-0.2-0.3-0.4-0.6-0.3-0.9 0-0.4 0.1-0.7 0.4-0.9 0.2-0.2 0.6-0.4 0.9-0.3q0.3 0 0.5 0.1 0.2 0.1 0.4 0.3 0.2 0.2 0.2 0.4 0.1 0.2 0.1 0.5z"/><path fill-rule="evenodd" class="d" d="m133.1 262.2l63 3.3"/><path fill-rule="evenodd" class="d" d="m132.8 266.4l63.1 3.2"/><path fill-rule="evenodd" class="d" d="m132.6 271.2l53.7 2.8"/><path class="a" d="m132.6 275.7l-0.3 5 5.2 0.3 0.2-5.1z"/><path class="a" d="m141.9 276.1l-0.3 5.1 5.2 0.2 0.2-5z"/><path class="a" d="m151.2 276.6l-0.3 5.1 5.1 0.2 0.3-5z"/><path class="a" d="m160.5 277.1l-0.3 5 5.1 0.3 0.3-5z"/><path class="e" d="m129.7 262.1q0 0.2-0.1 0.4-0.1 0.3-0.3 0.4-0.2 0.2-0.4 0.3-0.3 0.1-0.5 0.1-0.4-0.1-0.7-0.3-0.3-0.2-0.5-0.6-0.1-0.3 0-0.7 0.1-0.4 0.4-0.6 0.3-0.3 0.6-0.4 0.4 0 0.8 0.1 0.3 0.2 0.5 0.5 0.2 0.4 0.2 0.8z"/><path fill-rule="evenodd" class="d" d="m131.8 286.4l63 3.3"/><path fill-rule="evenodd" class="d" d="m131.6 290.6l63 3.2"/><path fill-rule="evenodd" class="d" d="m131.3 295.4l53.8 2.8"/><path class="a" d="m131.3 299.8l-0.2 5.1 5.1 0.2 0.2-5z"/><path class="f" d="m141.7 300.3l-0.3 5 5.2 0.3 0.2-5.1z"/><path class="a" d="m149.9 300.8l-0.3 5 5.2 0.3 0.2-5z"/><path class="a" d="m159.2 301.3l-0.3 5 5.2 0.3 0.2-5.1z"/><path class="e" d="m128.4 286.2q0 0.3-0.1 0.5-0.1 0.2-0.3 0.4-0.2 0.2-0.4 0.3-0.3 0.1-0.5 0c-0.4 0-0.7-0.1-0.9-0.3-0.3-0.3-0.4-0.6-0.4-0.9 0-0.4 0.1-0.7 0.4-0.9 0.2-0.3 0.5-0.4 0.9-0.4h0.2q0.2 0 0.5 0.1 0.2 0.1 0.4 0.3 0.1 0.2 0.2 0.4 0.1 0.3 0.1 0.5z"/><path fill-rule="evenodd" class="d" d="m130.5 311.3l63 3.3"/><path fill-rule="evenodd" class="d" d="m130.2 315.4l63.1 3.3"/><path fill-rule="evenodd" class="d" d="m130 320.3l53.7 2.8"/><path class="a" d="m130 324.7l-0.3 5 5.1 0.3 0.3-5z"/><path class="a" d="m139.3 325.2l-0.3 5 5.1 0.3 0.3-5.1z"/><path class="a" d="m148.6 325.6l-0.3 5.1 5.1 0.3 0.3-5.1z"/><path class="a" d="m157.9 326.1l-0.3 5.1 5.1 0.3 0.3-5.1z"/><path class="e" d="m127.1 311.1q0 0.4-0.3 0.7-0.2 0.3-0.6 0.4-0.3 0.2-0.7 0.1-0.4-0.1-0.6-0.4-0.3-0.3-0.3-0.7-0.1-0.4 0.1-0.7 0.1-0.3 0.5-0.5 0.3-0.2 0.7-0.2 0.2 0 0.5 0.1 0.2 0.1 0.4 0.3 0.1 0.2 0.2 0.4 0.1 0.3 0.1 0.5z"/><path fill-rule="evenodd" class="d" d="m135.6 253.6l0.7 1.1 2.7-3"/><path fill-rule="evenodd" class="d" d="m153 278.4l0.6 1.1 2.8-2.9"/><path fill-rule="evenodd" class="d" d="m161.6 303.9l0.7 1.2 2.7-3"/><path fill-rule="evenodd" class="d" d="m141.1 326.7l0.6 1.1 2.8-2.9"/><path class="b" d="m152.1 309.1l-81.3 22.2-33.9-120.3 33.6-9.2 47.6-13 30.8 109.1z"/><g clip-path="url(#cp2)"><path class="c" d="m148.9 297.9l-62.8 4-15.6-100.1 47.6-13z"/></g><path class="a" d="m152.1 309.1l-81.3 22.2-33.9-120.3 33.6-9.2 47.6-13 30.8 109.1z"/><path fill-rule="evenodd" class="d" d="m45.3 217.2l21.1-5.7"/><path fill-rule="evenodd" class="d" d="m46.4 221.3l14.4-4"/><path fill-rule="evenodd" class="d" d="m54.2 229.3l60.8-16.7"/><path fill-rule="evenodd" class="d" d="m55.4 233.3l60.8-16.7"/><path fill-rule="evenodd" class="d" d="m56.7 237.9l51.8-14.2"/><path class="a" d="m63.1 240.8l-5 1.3 1.4 4.9 5-1.4z"/><path class="a" d="m72.1 238.3l-5 1.4 1.4 4.8 4.9-1.3z"/><path class="a" d="m81 235.9l-4.9 1.3 1.3 4.9 5-1.4z"/><path class="a" d="m90 233.4l-5 1.4 1.4 4.8 4.9-1.3z"/><path class="e" d="m51 230.2c0.1 0.3 0 0.6-0.1 0.9-0.2 0.3-0.5 0.5-0.8 0.6-0.3 0.1-0.7 0.1-1-0.1-0.3-0.2-0.5-0.4-0.6-0.8-0.1-0.3 0-0.6 0.1-0.9 0.2-0.3 0.5-0.5 0.8-0.6 0.3-0.1 0.7-0.1 1 0.1 0.3 0.2 0.5 0.4 0.6 0.8z"/><path fill-rule="evenodd" class="d" d="m60.8 252.6l60.8-16.6"/><path fill-rule="evenodd" class="d" d="m61.9 256.6l60.9-16.6"/><path fill-rule="evenodd" class="d" d="m63.3 261.3l51.8-14.2"/><path class="a" d="m69.7 264.1l-5 1.3 1.4 4.9 4.9-1.3z"/><path class="a" d="m78.6 261.6l-4.9 1.4 1.4 4.9 4.9-1.4z"/><path class="a" d="m87.6 259.2l-5 1.3 1.4 4.9 5-1.3z"/><path class="a" d="m96.6 256.7l-5 1.4 1.4 4.8 4.9-1.3z"/><path class="e" d="m57.6 253.5q0.1 0.4 0 0.7-0.2 0.4-0.5 0.6-0.3 0.3-0.7 0.3-0.4 0-0.7-0.2-0.3-0.1-0.5-0.5-0.2-0.3-0.1-0.7 0-0.4 0.3-0.7 0.2-0.3 0.6-0.4 0.2-0.1 0.5 0 0.2 0 0.5 0.1 0.2 0.1 0.3 0.3 0.2 0.2 0.3 0.5z"/><path fill-rule="evenodd" class="d" d="m67.4 275.9l60.8-16.6"/><path fill-rule="evenodd" class="d" d="m68.5 279.9l60.8-16.6"/><path fill-rule="evenodd" class="d" d="m69.8 284.6l51.9-14.2"/><path class="a" d="m76.2 287.4l-4.9 1.4 1.4 4.8 4.9-1.3z"/><path class="a" d="m85.2 285l-4.9 1.3 1.3 4.9 5-1.4z"/><path class="a" d="m94.2 282.5l-5 1.4 1.4 4.8 4.9-1.3z"/><path class="a" d="m103.1 280.1l-4.9 1.3 1.4 4.9 4.9-1.4z"/><path class="e" d="m64.2 276.8q0.1 0.4-0.1 0.8-0.1 0.3-0.4 0.6-0.3 0.2-0.7 0.2-0.4 0.1-0.7-0.1-0.4-0.2-0.5-0.6-0.2-0.3-0.2-0.7 0.1-0.4 0.3-0.7 0.3-0.3 0.7-0.4 0.2 0 0.5 0 0.2 0 0.4 0.1 0.3 0.2 0.4 0.4 0.2 0.2 0.2 0.4z"/><path fill-rule="evenodd" class="d" d="m74.2 299.9l60.8-16.6"/><path fill-rule="evenodd" class="d" d="m75.3 303.9l60.8-16.6"/><path fill-rule="evenodd" class="d" d="m76.6 308.6l51.9-14.2"/><path class="a" d="m83 311.4l-4.9 1.4 1.3 4.8 5-1.3z"/><path class="a" d="m92 309l-5 1.3 1.4 4.9 4.9-1.4z"/><path class="a" d="m100.9 306.5l-4.9 1.4 1.4 4.8 4.9-1.3z"/><path class="a" d="m109.9 304.1l-4.9 1.3 1.3 4.9 5-1.4z"/><path class="e" d="m70.9 300.8c0.1 0.3 0.1 0.7-0.1 1-0.1 0.3-0.4 0.5-0.8 0.6-0.3 0.1-0.6 0-0.9-0.1-0.3-0.2-0.6-0.5-0.7-0.8 0-0.3 0-0.7 0.2-1 0.1-0.3 0.4-0.5 0.7-0.6 0.4-0.1 0.7 0 1 0.1 0.3 0.2 0.5 0.5 0.6 0.8z"/><path fill-rule="evenodd" class="d" d="m68.9 241.3l1 0.8 1.6-3.7"/><path fill-rule="evenodd" class="d" d="m66.5 267.3l1 0.8 1.6-3.6"/><path fill-rule="evenodd" class="d" d="m73 290.4l1 0.8 1.7-3.6"/><path fill-rule="evenodd" class="d" d="m97.7 309.3l1 0.8 1.7-3.6"/><path class="g" d="m160 161l-83.9 7.9 12.1 124.3 83.9-7.9z"/><path fill-rule="evenodd" class="d" d="m83.2 176.5l21.9-2"/><path fill-rule="evenodd" class="d" d="m83.6 180.7l14.9-1.5"/><path fill-rule="evenodd" class="d" d="m89.9 189.9l62.8-5.9"/><path fill-rule="evenodd" class="d" d="m90.3 194l62.8-5.9"/><path fill-rule="evenodd" class="d" d="m90.8 198.9l53.6-5.1"/><path class="a" d="m96.6 202.7l-5.1 0.5 0.5 5 5.1-0.4z"/><path class="a" d="m105.9 201.8l-5.2 0.5 0.5 5.1 5.2-0.5z"/><path class="a" d="m115.1 201l-5.1 0.5 0.5 5 5.1-0.5z"/><path class="a" d="m124.4 200.1l-5.1 0.5 0.5 5 5.1-0.5z"/><path class="e" d="m86.6 190.2q0 0.4-0.2 0.8-0.2 0.3-0.5 0.5-0.4 0.1-0.7 0.1-0.4 0-0.7-0.3-0.3-0.2-0.5-0.6-0.1-0.4 0-0.7 0.2-0.4 0.5-0.6 0.3-0.3 0.7-0.3 0.2 0 0.5 0 0.2 0.1 0.4 0.3 0.2 0.1 0.3 0.3 0.1 0.3 0.2 0.5z"/><path fill-rule="evenodd" class="d" d="m92.3 214l62.8-5.9"/><path fill-rule="evenodd" class="d" d="m92.7 218.1l62.8-5.9"/><path fill-rule="evenodd" class="d" d="m93.1 223l53.6-5.1"/><path class="a" d="m98.9 226.8l-5.1 0.5 0.5 5 5.1-0.4z"/><path class="a" d="m108.2 226l-5.1 0.4 0.5 5.1 5.1-0.5z"/><path class="a" d="m117.5 225.1l-5.1 0.5 0.5 5 5.1-0.5z"/><path class="a" d="m126.7 224.2l-5.1 0.5 0.5 5 5.1-0.4z"/><path class="e" d="m88.9 214.3q0.1 0.4-0.1 0.7-0.2 0.4-0.6 0.6-0.3 0.1-0.7 0.1-0.4 0-0.7-0.3-0.3-0.2-0.4-0.6-0.1-0.4 0-0.7 0.1-0.4 0.4-0.6 0.3-0.3 0.7-0.3 0.3 0 0.5 0 0.3 0.1 0.5 0.3 0.1 0.1 0.3 0.3 0.1 0.3 0.1 0.5z"/><path fill-rule="evenodd" class="d" d="m94.6 238.1l62.8-5.9"/><path fill-rule="evenodd" class="d" d="m95 242.2l62.8-5.9"/><path fill-rule="evenodd" class="d" d="m95.5 247.1l53.6-5.1"/><path class="a" d="m101.3 250.9l-5.1 0.5 0.5 5 5.1-0.4z"/><path class="a" d="m110.6 250l-5.2 0.5 0.5 5.1 5.1-0.5z"/><path class="a" d="m119.8 249.2l-5.1 0.5 0.5 5 5.1-0.5z"/><path class="a" d="m129.1 248.3l-5.1 0.5 0.5 5 5.1-0.5z"/><path class="e" d="m91.3 238.4q0 0.4-0.2 0.7-0.2 0.4-0.5 0.6-0.4 0.1-0.8 0.1-0.3-0.1-0.6-0.3-0.3-0.2-0.4-0.6-0.2-0.4 0-0.7 0.1-0.4 0.4-0.6 0.3-0.3 0.7-0.3 0.2 0 0.5 0 0.2 0.1 0.4 0.3 0.2 0.1 0.3 0.3 0.1 0.3 0.2 0.5z"/><path fill-rule="evenodd" class="d" d="m97 262.9l62.8-6"/><path fill-rule="evenodd" class="d" d="m97.4 267l62.8-5.9"/><path fill-rule="evenodd" class="d" d="m97.9 271.8l53.6-5"/><path class="a" d="m103.7 275.7l-5.1 0.5 0.5 5 5.1-0.4z"/><path class="a" d="m113 274.8l-5.1 0.5 0.5 5.1 5.1-0.5z"/><path class="a" d="m122.2 274l-5.1 0.4 0.5 5.1 5.1-0.5z"/><path class="a" d="m131.5 273.1l-5.1 0.5 0.5 5 5.1-0.5z"/><path class="e" d="m93.7 263.2q0 0.4-0.2 0.7-0.2 0.4-0.5 0.6-0.3 0.1-0.7 0.1-0.4 0-0.7-0.3-0.3-0.2-0.4-0.6-0.2-0.4 0-0.7 0.1-0.4 0.4-0.6 0.3-0.3 0.7-0.3 0.2-0.1 0.5 0 0.2 0.1 0.4 0.3 0.2 0.1 0.3 0.3 0.2 0.3 0.2 0.5z"/><path fill-rule="evenodd" class="d" d="m93.5 205.1l0.8 1 2.3-3.4"/><path fill-rule="evenodd" class="d" d="m114.3 227.1l0.9 1 2.2-3.3"/><path fill-rule="evenodd" class="d" d="m107.5 252.6l0.8 1 2.3-3.3"/><path fill-rule="evenodd" class="d" d="m128.3 275.4l0.8 1 2.3-3.3"/><path class="g" d="m262.6 112h-52.1c-1.8 0-3.6 0.7-4.9 2-1.3 1.3-2 3-2 4.8v44.2c0 1.8 0.7 3.5 2 4.8 1.3 1.3 3.1 2 4.9 2h23.1l13.3 15.7-3.4-15.7h19.1c1.9 0 3.6-0.7 4.9-2 1.3-1.3 2-3 2-4.8v-44.2c0-1.8-0.7-3.5-2-4.8-1.3-1.3-3-2-4.9-2z"/><path class="h" d="m240.8 136.2l-0.1-4.7-3.5-0.3q-0.3-1.1-0.9-2.1l2.3-2.6-3.3-3.3-2.8 2.2q-1-0.5-2.1-0.9l-0.3-3.4h-4.7l-0.3 3.4q-1.2 0.4-2.2 0.9l-2.7-2.2-3.4 3.3 2.3 2.7q-0.5 1-0.9 2.1l-3.5 0.3v4.6l3.5 0.4q0.4 1.1 0.9 2.1l-2.3 2.6 3.4 3.3 2.7-2.2q1 0.5 2.1 0.8l0.3 3.5h4.8l0.3-3.5q1.1-0.3 2.1-0.8l2.7 2.2 3.4-3.3-2.3-2.6q0.6-1.1 0.9-2.1zm-13.1 3.1c-1 0-2.1-0.4-3-1-0.9-0.6-1.6-1.4-2.1-2.4-0.4-1-0.5-2.1-0.3-3.1 0.2-1.1 0.8-2.1 1.5-2.8 0.8-0.8 1.8-1.3 2.9-1.5 1-0.2 2.1-0.1 3.1 0.3 1.1 0.4 1.9 1.1 2.5 2 0.6 0.9 1 1.9 1 3q0 1.1-0.5 2.1-0.4 1-1.1 1.7-0.8 0.8-1.8 1.2-1 0.4-2.1 0.4z"/><path class="h" d="m256.4 146.6v-3.3l-2.5-0.2q-0.2-0.8-0.6-1.5l1.6-1.9-2.4-2.4-1.9 1.6q-0.7-0.3-1.5-0.6l-0.2-2.5h-3.4l-0.2 2.5q-0.8 0.3-1.6 0.6l-1.9-1.6-2.4 2.4 1.7 1.9q-0.4 0.7-0.7 1.5l-2.5 0.2v3.3l2.5 0.2q0.3 0.8 0.7 1.5l-1.7 1.9 2.4 2.4 1.9-1.6q0.8 0.4 1.6 0.6l0.2 2.5h3.4l0.2-2.5q0.8-0.2 1.5-0.6l1.9 1.6 2.4-2.4-1.6-1.9q0.4-0.7 0.6-1.5zm-9.3 2.3c-0.7 0-1.5-0.3-2.1-0.7-0.7-0.4-1.2-1-1.5-1.7-0.3-0.7-0.4-1.5-0.2-2.3 0.1-0.7 0.5-1.4 1.1-1.9 0.5-0.6 1.2-1 2-1.1 0.7-0.2 1.5-0.1 2.2 0.2 0.8 0.3 1.4 0.8 1.8 1.4 0.4 0.7 0.7 1.4 0.7 2.2 0 1-0.5 2-1.2 2.7-0.7 0.7-1.7 1.2-2.8 1.2z"/><path class="h" d="m239.9 154.4v-2.4l-1.8-0.1q-0.1-0.6-0.4-1.1l1.1-1.3-1.7-1.7-1.3 1.1q-0.5-0.2-1.1-0.4l-0.2-1.8h-2.4l-0.1 1.8q-0.6 0.1-1.1 0.4l-1.4-1.1-1.7 1.7 1.2 1.3q-0.3 0.5-0.5 1.1l-1.7 0.1v2.4l1.7 0.2q0.2 0.5 0.5 1l-1.2 1.4 1.7 1.7 1.4-1.2q0.5 0.3 1.1 0.5l0.1 1.7h2.4l0.2-1.7q0.6-0.2 1.1-0.5l1.3 1.2 1.7-1.7-1.1-1.3q0.3-0.6 0.4-1.1zm-6.6 1.6c-0.5 0-1.1-0.2-1.5-0.5-0.5-0.3-0.8-0.7-1-1.2-0.3-0.5-0.3-1.1-0.2-1.6 0.1-0.6 0.4-1.1 0.8-1.4 0.3-0.4 0.8-0.7 1.4-0.8 0.5-0.1 1.1 0 1.6 0.2 0.5 0.2 0.9 0.5 1.3 1 0.3 0.4 0.4 1 0.4 1.5 0 0.7-0.3 1.4-0.8 1.9-0.5 0.6-1.2 0.9-2 0.9z"/><path class="i" d="m235.2 281.6l40.6 147.6h6.1l-40.6-147.6z"/><path class="j" d="m326.7 387.4h-77v6.2h77z"/><path class="i" d="m367.7 248.4l-49.7 180.9h-6.1l49.8-180.9c1.8-6.6-2.4-12.1-9.4-12.1h-42.9c-7 0-14.2 5.5-16 12.1l-49.7 180.9h-6.1l49.8-180.9c2.7-9.8 13.3-17.9 23.6-17.9h42.9c10.3 0 16.6 8.1 13.8 17.9z"/><path class="h" d="m368.5 248.5l-12.3 44.9c-0.6 1.9-1.8 3.5-3.4 4.7-1.6 1.2-3.5 1.9-5.5 2h-70.4c-0.9 0.1-1.7-0.1-2.5-0.4-0.8-0.4-1.5-0.9-2-1.6-0.5-0.6-0.8-1.4-1-2.2-0.1-0.9 0-1.7 0.3-2.5l12.3-44.9c0.6-1.9 1.8-3.5 3.4-4.7 1.6-1.2 3.5-1.9 5.5-2h70.4q1-0.1 2 0.2 1 0.4 1.8 1 0.7 0.7 1.2 1.6 0.4 0.9 0.5 1.9 0.1 1-0.3 2z"/><g clip-path="url(#cp3)"><path class="c" d="m368.5 248.5l-12.3 44.9c-0.6 1.9-1.8 3.5-3.4 4.7-1.6 1.2-3.5 1.9-5.5 2h-70.4c-0.9 0.1-1.7-0.1-2.5-0.4-0.8-0.4-1.5-0.9-2-1.6-0.5-0.6-0.8-1.4-1-2.2-0.1-0.9 0-1.7 0.3-2.5l12.3-44.9c0.6-1.9 1.8-3.5 3.4-4.7 1.6-1.2 3.5-1.9 5.5-2h36.4c15.8 15.9 13.8 45.2 12.7 54 1.7-0.3 3.2-1.2 4.4-2.3 1.3-1.1 2.2-2.6 2.7-4.1l12.3-44.9c0.3-0.9 0.3-1.8 0.2-2.7h1.7c0.9-0.1 1.7 0.1 2.5 0.4 0.8 0.4 1.4 0.9 2 1.5 0.5 0.7 0.8 1.5 1 2.3 0.1 0.8 0 1.7-0.3 2.5z"/></g><path class="a" d="m368.5 248.5l-12.3 44.9c-0.6 1.9-1.8 3.5-3.4 4.7-1.6 1.2-3.5 1.9-5.5 2h-70.4c-0.9 0.1-1.7-0.1-2.5-0.4-0.8-0.4-1.5-0.9-2-1.6-0.5-0.6-0.8-1.4-1-2.2-0.1-0.9 0-1.7 0.3-2.5l12.3-44.9c0.6-1.9 1.8-3.5 3.4-4.7 1.6-1.2 3.5-1.9 5.5-2h70.4q1-0.1 2 0.2 1 0.4 1.8 1 0.7 0.7 1.2 1.6 0.4 0.9 0.5 1.9 0.1 1-0.3 2z"/><path class="i" d="m327.1 345.5l23.1 83.7h6l-23-83.7z"/><path class="k" d="m333.2 335.9v8.2h-90.7v-8.2c0-1.6 0.7-3.1 1.8-4.3 1.2-1.1 2.7-1.7 4.4-1.7h78.4q1.2 0 2.3 0.4 1.2 0.5 2 1.3 0.9 0.9 1.4 2 0.4 1.1 0.4 2.3z"/><g clip-path="url(#cp4)"><path class="l" d="m333 334.3c-2.9 3.4-8.2 6.9-17.2 9.8h-73.3v-8.2c0-1.6 0.7-3.1 1.8-4.3 1.2-1.1 2.7-1.7 4.4-1.7h78.4c1.4 0 2.7 0.4 3.7 1.2 1.1 0.8 1.9 2 2.2 3.2z"/></g><path class="a" d="m333.2 335.9v8.2h-90.7v-8.2c0-1.6 0.7-3.1 1.8-4.3 1.2-1.1 2.7-1.7 4.4-1.7h78.4q1.2 0 2.3 0.4 1.2 0.5 2 1.3 0.9 0.9 1.4 2 0.4 1.1 0.4 2.3z"/><path class="j" d="m336.3 341.6h-96c-1 0-1.8 0.8-1.8 1.7v4.3c0 0.9 0.8 1.7 1.8 1.7h96c1 0 1.7-0.8 1.7-1.7v-4.3c0-0.9-0.7-1.7-1.7-1.7z"/><path class="e" d="m239.6 341.8c-4.3 4.4 16.7 73 16.7 73-2.3 1.9-5.7 2.9-8.9 3.3q-4.4 0.5-8.9 0.1c0 0-30.2-72.2-21.8-90.1 8.3-17.9 59.8-26 59.8-26l2.2-5.4 26.7-3.7 4.4 32.2c0 0-4.4 0.4-11 1.3-17.6 2.2-51.2 7.4-59.2 15.3z"/><g clip-path="url(#cp5)"><path class="m" d="m256.3 414.8c-2.3 2-5.7 2.9-8.9 3.3-5.8-21.5-20.7-78.7-15.1-85.7 7-8.7 41.5-16.5 41.5-16.5 0.1-4.5 12.2-8.4 12.2-8.4l12.8 18.9c-17.6 2.3-51.2 7.5-59.2 15.4-4.3 4.4 16.7 73 16.7 73z"/></g><path class="a" d="m239.6 341.8c-4.3 4.4 16.7 73 16.7 73-2.3 1.9-5.7 2.9-8.9 3.3q-4.4 0.5-8.9 0.1c0 0-30.2-72.2-21.8-90.1 8.3-17.9 59.8-26 59.8-26l2.2-5.4 26.7-3.7 4.4 32.2c0 0-4.4 0.4-11 1.3-17.6 2.2-51.2 7.4-59.2 15.3z"/><path class="b" d="m224.7 277c-4.5-0.8 27.1-28 27.1-28l15.2 10.1c0 0-25.9 17.9-30 18.4-4 0.5-12.3-0.5-12.3-0.5z"/><g clip-path="url(#cp6)"><path class="c" d="m224.7 277c-4.5-0.8 27.1-28 27.1-28l15.2 10.1c0 0-25.9 17.9-30 18.4-4 0.5-12.3-0.5-12.3-0.5z"/></g><path class="a" d="m224.7 277c-4.5-0.8 27.1-28 27.1-28l15.2 10.1c0 0-25.9 17.9-30 18.4-4 0.5-12.3-0.5-12.3-0.5z"/><path class="g" d="m230.2 265.5c0 0 6.6 1.6 8.6 3 2.1 1.4 1.5 6.3 1.5 6.3 0 0-8.8-2.5-10.1-9.3z"/><path class="e" d="m226 253l12.3 23.3h1.4l-11.6-24.4z"/><path class="g" d="m237.1 269.8c0 0-7.8-5.4-9.7-5.4-1.9 0-7.5 6.6-7.5 9.9 0 3.4 12.3 5.2 14.8 2.4 1.2-1.4-1.2-4.8-1.2-4.8q2.1 2.3 4.6 4.2c1 0.6 2.9-0.2 2.9-0.2 0 0-2.6-4-3.9-6.1z"/><path fill-rule="evenodd" class="a" d="m233.5 277.4c-1.8-2.2-4-4.1-6.5-5.5"/><path fill-rule="evenodd" class="a" d="m233.5 271.9c0 0-2.7-2.3-4.5-2.8"/><path fill-rule="evenodd" class="a" d="m225 274.8q2.8 1.4 5.4 3.2"/><path class="n" d="m261.6 237.1c-3.9 2.7-21.7 20.7-21.7 20.7 0 0 8.3 9.4 15.6 10.7l19.8-9.4z"/><path class="o" d="m261.6 237.1c-3.9 2.7-21.7 20.7-21.7 20.7 0 0 8.3 9.4 15.6 10.7l19.8-9.4z"/><path class="k" d="m252.1 407.5l8.4 21.8c0 0 1.4 5.6-24 3.8l-13.9-1.2z"/><g clip-path="url(#cp7)"><path class="m" d="m252.1 407.5l8.4 21.8c0 0 1.4 5.6-24 3.8l-13.9-1.2z"/></g><path class="a" d="m252.1 407.5l8.4 21.8c0 0 1.4 5.6-24 3.8l-13.9-1.2z"/><path class="p" d="m248.9 417.9c0 0 1.8 8.5 0 14.8 0 0-26.8 4.1-32.7 2.5-6-1.5-9.6-4.5-9.8-5.9 0 0 0.2-4.1 6.2-5.2 6-1.2 17.9-2 22.6-8.7 4.7-6.6 13.7 2.5 13.7 2.5z"/><path class="e" d="m284.2 295.9c8.5-12.1 47.8 2.4 47.8 2.4 0 0 3.7 28.9-11.9 36.6-15.7 7.7-38.2 7.3-44.3 13.6l-24.8 72.1c0 0-8.9 3.6-21.9-2.1 0 0 15.8-54.5 20.4-73.8 4.6-19.2 34.1-32.2 34.1-32.2-1.5-1.7-2.6-3.8-3.3-6"/><path fill-rule="evenodd" class="a" d="m284.2 295.9c8.5-12.1 47.8 2.4 47.8 2.4 0 0 3.7 28.9-11.9 36.6-15.7 7.7-38.2 7.3-44.3 13.6l-24.8 72.1c0 0-8.9 3.6-21.9-2.1 0 0 15.8-54.5 20.4-73.8 4.6-19.2 34.1-32.2 34.1-32.2-1.5-1.7-2.6-3.8-3.3-6"/><path fill-rule="evenodd" class="q" d="m323.9 323.5q-1.9 1.6-3.9 3"/><path fill-rule="evenodd" class="q" d="m327.1 299c3.2 6.9 3.5 15.6-1 21.9"/><path fill-rule="evenodd" class="q" d="m318.2 300.1c0 0-0.8 5.3 1.6 7.4 2.3 2.1 9.7 3.1 9.7 3.1"/><path fill-rule="evenodd" class="q" d="m286 300.3c0 0 0.3 5.3-1.8 5.1-2.2-0.3-2.3 2.1-2.3 2.1"/><path class="k" d="m262.2 241.1q-0.5-2-0.6-4c0 0 12.1-10.1 27.7-10 18.6 0 29.9 5.8 34.5 13.8 7.2 12.6 8.2 57.4 8.2 57.4 0 0-46.6 7.1-53.3-1.6-1.1-1.5-0.2-12.2-0.2-12.2 0 0-5.3-13.5-6.4-23.9q-2.3-3.1-4.2-6.5-2.5-4.1-4.3-8.5"/><path fill-rule="evenodd" class="a" d="m262.2 241.1q-0.5-2-0.6-4c0 0 12.1-10.1 27.7-10 18.6 0 29.9 5.8 34.5 13.8 7.2 12.6 8.2 57.4 8.2 57.4 0 0-46.6 7.1-53.3-1.6-1.1-1.5-0.2-12.2-0.2-12.2 0 0-5.3-13.5-6.4-23.9q-2.3-3.1-4.2-6.5-2.5-4.1-4.3-8.5"/><g style="opacity:.6"><path class="b" d="m262.2 241.1q-0.5-2-0.6-4c0 0 12.1-10.1 27.7-10 18.6 0 29.9 5.8 34.5 13.8 7.2 12.6 8.2 57.4 8.2 57.4 0 0-46.6 7.1-53.3-1.6-1.1-1.5-0.2-12.2-0.2-12.2 0 0-5.3-13.5-6.4-23.9q-2.3-3.1-4.2-6.5-2.5-4.1-4.3-8.5"/><path fill-rule="evenodd" class="a" d="m262.2 241.1q-0.5-2-0.6-4c0 0 12.1-10.1 27.7-10 18.6 0 29.9 5.8 34.5 13.8 7.2 12.6 8.2 57.4 8.2 57.4 0 0-46.6 7.1-53.3-1.6-1.1-1.5-0.2-12.2-0.2-12.2 0 0-5.3-13.5-6.4-23.9q-2.3-3.1-4.2-6.5-2.5-4.1-4.3-8.5"/></g><path fill-rule="evenodd" class="a" d="m280 251.9c0 0 7.1 27.2 6 33.2-0.2 2 0.1 4.1 1 6-0.9 1-1.5 2.2-1.7 3.5-0.1 1.3 0.1 2.7 0.7 3.8"/><path fill-rule="evenodd" class="a" d="m298.8 274.4c-1.2-0.1-2.5-0.4-3.5-1.1l-2.1-9.1c4.2 0.3 8.4 0.1 12.5-0.9l2.2 9.9q-1.9 0.6-3.9 0.9"/><path class="n" d="m274.9 255.4c0 0-6-25.4 9.3-28.3 15.2-3 18.4 4.1 17.5 8.8-1.2 6.4-13.9 21.9-13.9 21.9l-7.8-5.9z"/><path class="o" d="m274.9 255.4c0 0-6-25.4 9.3-28.3 15.2-3 18.4 4.1 17.5 8.8-1.2 6.4-13.9 21.9-13.9 21.9l-7.8-5.9z"/><path fill-rule="evenodd" class="q" d="m254.9 333.9c0 0 9.9-11.2 32.1-19.7 0 0-5.7-1.7-7-4.1"/><path fill-rule="evenodd" class="q" d="m243.3 368.2l-9 32.3"/><path class="n" d="m313 275.3c0 0 4 6.7 20.6 6.1-3.1-3.3-7-5.7-11.3-7-6.8-1.8-9.3 0.9-9.3 0.9z"/><path class="g" d="m248.5 278c0 0 3.9-5.9 7.4-7.1 3.5-1.2 13.9-1.3 15.5-1.3 1.6-0.1 30.1 7.1 43.5 11.5l-1.2-22 18 1.4c0 0-0.7 26.8-3.5 33.9-2.8 7.1-6.8 5.4-13.7 2.5-26.8-11.4-42.5-19.4-44-18.9-1.5 0.5-22 0-22 0z"/><path class="k" d="m309.2 246.3c-0.4 1.8-0.6 3.7-0.4 5.6 0.8 6.8 4.2 23.4 4.2 23.4 0 0 16.7 2.3 20.6 6.1 0 0 2.8-21.9-2.8-33-5.7-11.1-11.5-12.3-11.5-12.3-3.7-0.9-7.1 2.5-8.9 6.8"/><path fill-rule="evenodd" class="a" d="m309.2 246.3c-0.4 1.8-0.6 3.7-0.4 5.6 0.8 6.8 4.2 23.4 4.2 23.4 0 0 16.7 2.3 20.6 6.1 0 0 2.8-21.9-2.8-33-5.7-11.1-11.5-12.3-11.5-12.3-3.7-0.9-7.1 2.5-8.9 6.8"/><g style="opacity:.4"><path class="b" d="m309.2 246.3c-0.4 1.8-0.6 3.7-0.4 5.6 0.8 6.8 4.2 23.4 4.2 23.4 0 0 16.7 2.3 20.6 6.1 0 0 2.8-21.9-2.8-33-5.7-11.1-11.5-12.3-11.5-12.3-3.7-0.9-7.1 2.5-8.9 6.8"/><path fill-rule="evenodd" class="a" d="m309.2 246.3c-0.4 1.8-0.6 3.7-0.4 5.6 0.8 6.8 4.2 23.4 4.2 23.4 0 0 16.7 2.3 20.6 6.1 0 0 2.8-21.9-2.8-33-5.7-11.1-11.5-12.3-11.5-12.3-3.7-0.9-7.1 2.5-8.9 6.8"/></g><path fill-rule="evenodd" class="a" d="m260 254.8c2.5 2 5.4 3.5 8.6 4.3"/><path fill-rule="evenodd" class="a" d="m313 254.8c0 0 6 11.3 13.7 13.7"/><path fill-rule="evenodd" class="q" d="m273.8 341.6c0 0 1.1 0.8 1.5 3.8"/><path fill-rule="evenodd" class="q" d="m269.6 345.4c1 0.1 1.9 0.4 2.8 0.9q1.3 0.8 2.2 1.9"/><path fill-rule="evenodd" class="q" d="m236.3 333.9c0 0 3.2 1.6 2.5 6.2"/><path fill-rule="evenodd" class="q" d="m232.9 337.8c0 0 4.4 2.5 4.7 4.8"/><path fill-rule="evenodd" class="q" d="m283.9 310c0 0 9.9 1.3 12.1 0"/><path class="b" d="m280 250.8c-0.9-2.4-1.2-4.9-1-7.4q0-1.3 0.3-2.5l-1.8-2.7-2.1-3.4 2.5-9.9c0 0 16.1 3 17.3 7.5 1.2 4.4-15.2 18.4-15.2 18.4z"/><g clip-path="url(#cp8)"><path class="c" d="m279 243.5q0-1.3 0.2-2.6l-1.7-2.6c3.1-0.5 5.9-2 7.9-4.4 0.1 2.1-0.5 4.1-1.6 5.8-1.2 1.7-2.9 3-4.8 3.8z"/></g><path class="a" d="m280 250.8c-0.9-2.4-1.2-4.9-1-7.4q0-1.3 0.3-2.5l-1.8-2.7-2.1-3.4 2.5-9.9c0 0 16.1 3 17.3 7.5 1.2 4.4-15.2 18.4-15.2 18.4z"/><path class="b" d="m290.1 225.7c5.1-12.9 1.7-34.9-22.5-30.7-14.2 2.5-15.9 19.4-11.2 26.9 4.8 7.5-0.3 7.8 6.9 13.3 2.9 2.3 5.2 6.1 8.6 6.4 4.1 0.2 9.4-3.6 13.3-7.7"/><path fill-rule="evenodd" class="a" d="m290.1 225.7c5.1-12.9 1.7-34.9-22.5-30.7-14.2 2.5-15.9 19.4-11.2 26.9 4.8 7.5-0.3 7.8 6.9 13.3 2.9 2.3 5.2 6.1 8.6 6.4 4.1 0.2 9.4-3.6 13.3-7.7"/><path fill-rule="evenodd" class="a" d="m266.3 221.9c0 0 3.5-3.2 7.8-1.9"/><path fill-rule="evenodd" class="a" d="m259.6 221.9c-0.5-0.8-1.2-1.5-2-2.1-0.8-0.5-1.7-0.8-2.7-1"/><path class="b" d="m261.9 226.6c0 0-0.5 2.5-1.2 5.1-0.6 2.6 4.3 1.2 4.1 0.8"/><path fill-rule="evenodd" class="a" d="m261.9 226.6c0 0-0.5 2.5-1.2 5.1-0.6 2.6 4.3 1.2 4.1 0.8"/><path fill-rule="evenodd" class="a" d="m267.3 235.8c2.1-0.6 3.9-1.8 5.3-3.4"/><path class="e" d="m271.2 225.2q0.1 0.2 0.2 0.4 0 0.2-0.1 0.4 0 0.2-0.2 0.4-0.1 0.2-0.3 0.3c-0.2 0.1-0.6 0.1-0.8 0.1-0.3-0.1-0.6-0.3-0.7-0.6q-0.1-0.2-0.1-0.5-0.2-0.2-0.2-0.4 0-0.2 0.1-0.4 0-0.2 0.2-0.4 0.1-0.2 0.3-0.3c0.2-0.1 0.5-0.1 0.8 0 0.3 0 0.5 0.2 0.7 0.5q0.1 0.2 0.1 0.5z"/><path class="e" d="m260.5 225c0.2 0.7 0 1.3-0.4 1.4-0.3 0.1-0.8-0.3-1-1.1-0.1-0.7 0-1.4 0.4-1.5 0.4-0.1 0.7 0.4 1 1.2z"/><path class="r" d="m275.2 208.6c0 0-3.8 9.7-13 9.5 0 0 3.2-2.5 4.1-4.8 0 0-7.2 7-14.3 3.4-7.1-3.5-3.6-19.9 7.3-26.4 10.9-6.5 22.1-4.8 25.9 1.4 0 0 7.7-0.7 11.1 10.4 3 9.9-1.8 25-6.6 25.2-7.3 0.3-8.8-7.6-8.8-7.6-3-3-5-6.9-5.7-11.1z"/><path class="b" d="m283.2 225.7c0 0-0.2-9.1 5.1-8 5.2 1.1 1.4 11.7-2.5 11.6"/><path fill-rule="evenodd" class="a" d="m283.2 225.7c0 0-0.2-9.1 5.1-8 5.2 1.1 1.4 11.7-2.5 11.6"/><path class="p" d="m266.9 277h-81.3c-0.9 0-1.6 0.7-1.6 1.6v2.8c0 0.9 0.7 1.6 1.6 1.6h81.3c0.9 0 1.7-0.7 1.7-1.6v-2.8c0-0.9-0.8-1.6-1.7-1.6z"/><path class="r" d="m65.6 398.3h-34.3l3.6 30.9h27.1z"/><path class="p" d="m69.7 376.8c0 0-15 1.2-15.6 12.1 0 0 15.2 6.9 15.6-12.1z"/><path class="p" d="m40.1 379.5c0 0-8.4-11.1-21.9-5.4 0 0 8.2 13.5 21.9 5.4z"/><path class="p" d="m19.3 344.3c0 0-2.4 21.5 17.4 15.6 0 0-6.3-15.8-17.4-15.6z"/><path class="p" d="m43.6 332.4c0 0-15.6 8.3-4.1 21 0 0 11-9.1 4.1-21z"/><path class="p" d="m62.9 351.6c0 0-17-1.7-17 13.8 0 0 17 0.7 17-13.8z"/><path fill-rule="evenodd" class="a" d="m46.9 411.1c0 0 7.7-16.1 0.3-32.4-7.5-16.4-10-30.2-6.1-39.9"/><path fill-rule="evenodd" class="a" d="m57.3 355.8c0 0-10.2 3.9-13.7 14.3"/><path fill-rule="evenodd" class="a" d="m24.7 352.9c0 0 5.9 8 15.9 7.1"/><path fill-rule="evenodd" class="a" d="m24.7 376.4c0 0 16.3 4.6 22.8 3.1"/><path fill-rule="evenodd" class="a" d="m64.8 381.7c0 0-7.3 8-14.6 7.8"/><path class="r" d="m67.1 397.7h-37.2v4.3h37.2z"/><path class="k" d="m337.4 369.7c-8.8 5.6-16.1 13-21.4 21.8-8.9 14.6-15.9 35.2-5 37.8l10.4-0.4 20-6.8-2.1-3.9c0 0-17.5 9.1-20.5 9.1-3 0-6.9 0.7-8.6-0.4-1.6-1.2 5.8-27.8 21.6-36.6 15.9-8.9 5.6-20.6 5.6-20.6z"/><g clip-path="url(#cp9)"><path class="s" d="m337.4 369.7c-8.8 5.6-16.1 13-21.4 21.8-8.9 14.6-15.9 35.2-5 37.8l10.4-0.4 20-6.8-2.1-3.9c0 0-17.5 9.1-20.5 9.1-3 0-6.9 0.7-8.6-0.4-1.6-1.2 5.8-27.8 21.6-36.6 15.9-8.9 5.6-20.6 5.6-20.6z"/></g><path class="a" d="m337.4 369.7c-8.8 5.6-16.1 13-21.4 21.8-8.9 14.6-15.9 35.2-5 37.8l10.4-0.4 20-6.8-2.1-3.9c0 0-17.5 9.1-20.5 9.1-3 0-6.9 0.7-8.6-0.4-1.6-1.2 5.8-27.8 21.6-36.6 15.9-8.9 5.6-20.6 5.6-20.6z"/><path class="n" d="m348.7 360.1c0 0 0-4.3 6.6-4.9 6.6-0.6 7.5 5.7 7.5 5.7h-2.2c0 0 0-3.8-4.8-4.1-4.9-0.2-4.7 4.1-4.7 4.1z"/><path class="k" d="m339 429.3c-13.9 0-11.3-61.6-9.7-64.6 1.6-3.1 42-4.6 46-3.3 4 1.3 20 62.6 11.2 67.5z"/><g clip-path="url(#cp10)"><path class="c" d="m339 429.3c-13.9 0-11.3-61.6-9.7-64.6 1.6-3.1 42-4.6 46-3.3 4 1.3 20 62.6 11.2 67.5z"/></g><path class="a" d="m339 429.3c-13.9 0-11.3-61.6-9.7-64.6 1.6-3.1 42-4.6 46-3.3 4 1.3 20 62.6 11.2 67.5z"/><path class="p" d="m329.3 364.6c5.1 1.1 8 21.2 14.7 26.4 6.8 5.1 38.8 4 42.5 0 3.6-4.1-3.5-26.7-8.7-30.1-5.1-3.5-8.8-0.1-23.2-1.7-21.5-2.4-25.3 5.4-25.3 5.4z"/><path class="k" d="m366 376.2l6 4.8q0.1 0.1 0.2 0.2 0 0.2 0.1 0.3 0 0.2-0.1 0.3 0 0.2-0.1 0.3l-4.7 4.9q-0.2 0.2-0.5 0.2-0.3 0-0.6-0.2l-5.9-5.4q-0.2-0.2-0.2-0.6 0-0.3 0.2-0.5l4.6-4.2q0.2-0.2 0.5-0.2 0.3-0.1 0.5 0.1z"/><g clip-path="url(#cp11)"><path class="c" d="m366 376.2l6 4.8q0.1 0.1 0.2 0.2 0 0.2 0.1 0.3 0 0.2-0.1 0.3 0 0.2-0.1 0.3l-4.7 4.9q-0.2 0.2-0.5 0.2-0.3 0-0.6-0.2l-5.9-5.4q-0.2-0.2-0.2-0.6 0-0.3 0.2-0.5l4.6-4.2q0.2-0.2 0.5-0.2 0.3-0.1 0.5 0.1z"/></g><path class="a" d="m366 376.2l6 4.8q0.1 0.1 0.2 0.2 0 0.2 0.1 0.3 0 0.2-0.1 0.3 0 0.2-0.1 0.3l-4.7 4.9q-0.2 0.2-0.5 0.2-0.3 0-0.6-0.2l-5.9-5.4q-0.2-0.2-0.2-0.6 0-0.3 0.2-0.5l4.6-4.2q0.2-0.2 0.5-0.2 0.3-0.1 0.5 0.1z"/><path class="k" d="m346.5 401.3c0 0 26.8 2.1 40-1.2 1.7 1.3 3 3.2 3.7 5.3 1.2 3.5 3.7 15.6-3.7 18.7-7.5 3.1-34.3 2.5-37.9-1-3.6-3.5-2.1-21.8-2.1-21.8z"/><g clip-path="url(#cp12)"><path class="t" d="m346.5 401.3c0 0 26.8 2.1 40-1.2 1.7 1.3 3 3.2 3.7 5.3 1.2 3.5 3.7 15.6-3.7 18.7-7.5 3.1-34.3 2.5-37.9-1-3.6-3.5-2.1-21.8-2.1-21.8z"/></g><path class="a" d="m346.5 401.3c0 0 26.8 2.1 40-1.2 1.7 1.3 3 3.2 3.7 5.3 1.2 3.5 3.7 15.6-3.7 18.7-7.5 3.1-34.3 2.5-37.9-1-3.6-3.5-2.1-21.8-2.1-21.8z"/><path class="p" d="m346.5 401.3c0 0 3.1 8.3 4.8 9.6 1.6 1.3 36.4 1.3 40.3-1.8 3.9-3.1-1.4-8.7-5.1-9 0 0-24.4 2.8-40 1.2z"/><path class="k" d="m335.3 399.5c0 0 0.8 17.5 2.6 21.5-1.3 0.7-2.8 1.1-4.3 1.1-1.5 0-3-0.4-4.3-1.1-4.5-2.3-3.8-17.5-2.9-17.4 0.9 0 8.9-4.1 8.9-4.1z"/><g clip-path="url(#cp13)"><path class="t" d="m335.3 399.5c0 0 0.8 17.5 2.6 21.5-1.3 0.7-2.8 1.1-4.3 1.1-1.5 0-3-0.4-4.3-1.1-4.5-2.3-3.8-17.5-2.9-17.4 0.9 0 8.9-4.1 8.9-4.1z"/></g><path class="a" d="m335.3 399.5c0 0 0.8 17.5 2.6 21.5-1.3 0.7-2.8 1.1-4.3 1.1-1.5 0-3-0.4-4.3-1.1-4.5-2.3-3.8-17.5-2.9-17.4 0.9 0 8.9-4.1 8.9-4.1z"/><path class="n" d="m335.3 399.5l-6.8 1.3c0 0-6.4 4.9-3.6 6.5 2.9 1.6 10.2-2.4 10.4-7.8z"/></svg>